PathFileType	4	(X/Y/Z)	D:\TRACE\spot_10-12-23\spot_body_motion_2_2-platform.trc
DataRate	CameraRate	NumFrames	NumMarkers	Units	OrigDataRate	OrigDataStartFrame	OrigNumFrames
100.00	100.00	      24	5	mm	100.00	6126	      7000
Frame#	Time	Left_Front			Right_Front			Left_Aft			Right_Aft			Post			
		X1	Y1	Z1	X2	Y2	Z2	X3	Y3	Z3	X4	Y4	Z4	X5	Y5	Z5	

6126	61.250	-819.31512	-7.27623	-644.71722	753.18646	-3.14342	-637.75098	-736.31421	14.88453	492.98218	680.82916	21.01963	579.01477	-36.33782	723.36322	-978.17114	
6127	61.260	-820.57050	-8.42728	-644.91400	752.40186	-4.19999	-638.33014	-736.91199	15.62136	492.76074	680.28247	22.19396	578.73090	-37.10653	721.39935	-979.65143	
6128	61.270	-821.15717	-9.84085	-645.36945	751.73883	-5.80706	-638.52283	-737.97546	16.80303	492.26141	679.40784	23.31137	578.28802	-38.05279	719.41467	-981.48004	
6129	61.280	-821.62830	-11.42342	-645.50549	750.67676	-7.15306	-638.78168	-738.67163	17.60774	492.02899	678.68396	24.34593	577.98016	-38.86319	717.29266	-983.37524	
6130	61.290	-822.56616	-12.68570	-645.82886	750.05585	-8.47063	-639.16107	-739.52612	18.56297	491.69473	677.88141	25.27322	577.67639	-39.48265	715.17065	-984.90637	
6131	61.300	-823.20551	-14.24825	-646.07269	749.41394	-9.91830	-639.21240	-740.25751	19.25184	491.27783	676.85596	26.47321	577.25006	-40.07891	713.03998	-986.84546	
6132	61.310	-823.90057	-15.59033	-646.50977	748.73865	-11.20769	-639.49341	-741.08948	20.25621	490.86322	676.18207	27.50556	576.81342	-40.96848	711.02795	-988.30536	
6133	61.320	-824.86652	-16.78141	-646.76721	747.76855	-12.40646	-640.10297	-741.55176	21.16151	490.86090	675.75665	28.74397	576.60474	-41.40817	709.02777	-990.25525	
6134	61.330	-825.39453	-18.13709	-647.09216	746.97021	-13.65453	-640.27063	-742.25317	22.05334	490.37152	674.95746	29.61897	576.26068	-42.29707	707.16461	-992.02625	
6135	61.340	-826.07446	-19.50494	-647.07477	746.30341	-15.15720	-640.58868	-743.12933	23.05931	490.01288	674.33502	30.66170	575.76031	-42.90585	705.02838	-993.58044	
6136	61.350	-826.63953	-20.67837	-647.57318	746.14063	-16.34309	-640.67438	-743.47675	23.70067	489.79044	673.65771	31.64023	575.57813	-43.71088	703.04633	-995.53619	
6137	61.360	-827.33881	-21.99495	-647.74341	745.42432	-17.57326	-640.69098	-744.01471	24.70111	489.13434	673.16315	32.59886	575.28540	-44.28993	701.13129	-996.96832	
6138	61.370	-827.82886	-22.99420	-647.92169	744.90436	-18.92149	-640.99658	-744.72241	25.60018	488.97980	672.53345	33.68845	574.90332	-44.91560	699.26581	-998.75940	
6139	61.380	-828.21704	-24.54686	-648.18665	744.42444	-19.81751	-641.29895	-745.16095	26.21250	488.71753	671.90186	34.61928	574.55011	-45.05306	697.57275	-1000.05676	
6140	61.390	-828.65662	-25.52457	-648.53992	743.71381	-21.32851	-641.78986	-745.72803	27.12288	488.26746	671.46167	35.49603	574.10883	-45.65979	695.67529	-1001.89508	
6141	61.400	-829.03058	-27.19413	-648.69269	743.42621	-22.47338	-641.74738	-746.30847	27.75017	488.00937	670.86890	36.17783	573.87274	-46.09348	693.82526	-1003.16022	
6142	61.410	-829.18756	-28.40091	-649.12756	742.70282	-23.73075	-642.34991	-746.53992	28.55488	487.63498	670.77905	37.56425	573.40515	-46.52491	691.88538	-1004.75128	
6143	61.420	-829.66492	-29.38391	-649.28003	742.67651	-24.81256	-642.30579	-746.93420	29.62223	487.46002	670.25061	38.42059	573.11371	-46.80328	690.18243	-1006.01141	
6144	61.430	-830.24780	-30.30805	-649.48907	742.35150	-25.99082	-642.63934	-747.23767	30.30884	487.14655	670.20081	39.22755	572.81573	-47.33463	688.22394	-1007.42468	
6145	61.440	-830.35565	-31.72305	-649.60840	741.92908	-27.02027	-642.73999	-747.57996	30.97760	486.74756	669.96875	40.52464	572.52106	-47.44008	686.63678	-1008.79681	
6146	61.450	-830.45807	-32.76459	-650.00793	741.85443	-28.26492	-642.97772	-747.71576	31.67332	486.51898	669.74658	41.18489	572.17242	-47.43397	685.02734	-1010.10779	
6147	61.460	-830.87415	-33.76737	-650.04517	741.57983	-29.22101	-643.42780	-747.91492	32.44931	486.22217	669.61017	41.91162	571.80597	-47.91070	683.28351	-1011.43213	
6148	61.470	-831.08868	-34.79912	-650.18451	741.87567	-30.38591	-643.04498	-747.81128	33.16903	486.01938	669.33948	42.92631	571.55560	-47.97363	681.58112	-1012.77600	
6149	61.480	-830.77289	-36.16727	-650.41516	741.76440	-31.30634	-643.49860	-748.07587	33.82715	485.69873	669.27856	43.61872	571.34174	-47.97209	679.96179	-1014.21301	
